<?xml version="1.0" encoding="UTF-8"?>
<!DOCTYPE svg PUBLIC "-//W3C//DTD SVG 1.1//EN" "http://www.w3.org/Graphics/SVG/1.1/DTD/svg11.dtd">
<svg xmlns="http://www.w3.org/2000/svg" version="1.1" width="225px" height="225px" style="shape-rendering:geometricPrecision; text-rendering:geometricPrecision; image-rendering:optimizeQuality; fill-rule:evenodd; clip-rule:evenodd" xmlns:xlink="http://www.w3.org/1999/xlink">
<g><path style="opacity:1" fill="#fefefe" d="M -0.5,-0.5 C 74.5,-0.5 149.5,-0.5 224.5,-0.5C 224.5,74.5 224.5,149.5 224.5,224.5C 149.5,224.5 74.5,224.5 -0.5,224.5C -0.5,149.5 -0.5,74.5 -0.5,-0.5 Z"/></g>
<g><path style="opacity:1" fill="#323333" d="M 182.5,31.5 C 179.332,28.9439 175.666,27.9439 171.5,28.5C 173.011,26.5589 175.011,26.0589 177.5,27C 180.115,27.6119 181.781,29.1119 182.5,31.5 Z"/></g>
<g><path style="opacity:1" fill="#ededed" d="M 171.5,28.5 C 175.666,27.9439 179.332,28.9439 182.5,31.5C 184.216,37.9789 181.883,41.9789 175.5,43.5C 169.002,41.8298 166.669,37.8298 168.5,31.5C 169.833,30.8333 170.833,29.8333 171.5,28.5 Z"/></g>
<g><path style="opacity:1" fill="#181818" d="M 171.5,28.5 C 170.833,29.8333 169.833,30.8333 168.5,31.5C 168.5,29.5 169.5,28.5 171.5,28.5 Z"/></g>
<g><path style="opacity:1" fill="#e93922" d="M 105.5,34.5 C 113.91,34.3625 122.243,35.0292 130.5,36.5C 128.548,40.129 127.881,43.7957 128.5,47.5C 120.584,45.982 112.584,45.3153 104.5,45.5C 105.568,44.5655 106.901,44.2322 108.5,44.5C 108.5,41.5 108.5,38.5 108.5,35.5C 107.209,35.7373 106.209,35.404 105.5,34.5 Z"/></g>
<g><path style="opacity:1" fill="#2e2f2f" d="M 168.5,31.5 C 166.669,37.8298 169.002,41.8298 175.5,43.5C 181.883,41.9789 184.216,37.9789 182.5,31.5C 185.69,38.5257 183.356,42.859 175.5,44.5C 167.499,42.8236 165.166,38.4903 168.5,31.5 Z"/></g>
<g><path style="opacity:1" fill="#1b1c1c" d="M 177.5,32.5 C 179.981,33.6962 179.981,35.1962 177.5,37C 178.451,37.7175 178.617,38.5509 178,39.5C 175.888,35.8729 174.221,35.8729 173,39.5C 172.503,36.854 172.336,34.1873 172.5,31.5C 174.415,31.2155 176.081,31.5489 177.5,32.5 Z"/></g>
<g><path style="opacity:1" fill="#eaeaea" d="M 177.5,32.5 C 177.5,33.5 177.5,34.5 177.5,35.5C 176.167,35.5 174.833,35.5 173.5,35.5C 173.5,34.5 173.5,33.5 173.5,32.5C 174.833,32.5 176.167,32.5 177.5,32.5 Z"/></g>
<g><path style="opacity:1" fill="#ed5a19" d="M 105.5,34.5 C 106.209,35.404 107.209,35.7373 108.5,35.5C 108.5,38.5 108.5,41.5 108.5,44.5C 106.901,44.2322 105.568,44.5655 104.5,45.5C 103.833,45.5 103.5,45.8333 103.5,46.5C 95.0202,47.2158 87.0202,49.5491 79.5,53.5C 79.1187,49.8812 78.1187,46.5479 76.5,43.5C 85.3855,38.318 95.0521,35.318 105.5,34.5 Z"/></g>
<g><path style="opacity:1" fill="#e7252c" d="M 130.5,36.5 C 139.441,38.804 147.774,42.4706 155.5,47.5C 154.811,48.7736 153.977,48.7736 153,47.5C 152.238,51.5874 152.404,55.5874 153.5,59.5C 145.788,54.1437 137.455,50.1437 128.5,47.5C 127.881,43.7957 128.548,40.129 130.5,36.5 Z"/></g>
<g><path style="opacity:1" fill="#bdbcbc" d="M 103.5,46.5 C 103.5,45.8333 103.833,45.5 104.5,45.5C 112.584,45.3153 120.584,45.982 128.5,47.5C 137.455,50.1437 145.788,54.1437 153.5,59.5C 157.167,63.8333 161.167,67.8333 165.5,71.5C 169.501,78.168 173.001,85.168 176,92.5C 177.629,99.0687 178.462,105.735 178.5,112.5C 174.5,112.5 170.5,112.5 166.5,112.5C 165.24,83.0669 150.24,64.9003 121.5,58C 118.183,57.5017 114.85,57.335 111.5,57.5C 111.5,53.8333 111.5,50.1667 111.5,46.5C 108.833,46.5 106.167,46.5 103.5,46.5 Z"/></g>
<g><path style="opacity:1" fill="#ef7617" d="M 76.5,43.5 C 78.1187,46.5479 79.1187,49.8812 79.5,53.5C 71.9055,58.7578 64.9055,64.7578 58.5,71.5C 55.3603,69.527 52.3603,67.3603 49.5,65C 56.9045,55.7549 65.9045,48.5883 76.5,43.5 Z"/></g>
<g><path style="opacity:1" fill="#e51a36" d="M 155.5,47.5 C 162.916,52.0792 169.249,57.9125 174.5,65C 171.621,67.3852 168.621,69.5518 165.5,71.5C 161.167,67.8333 157.167,63.8333 153.5,59.5C 152.404,55.5874 152.238,51.5874 153,47.5C 153.977,48.7736 154.811,48.7736 155.5,47.5 Z"/></g>
<g><path style="opacity:1" fill="#1c1e1f" d="M 105.5,68.5 C 131.919,67.7718 148.419,80.1051 155,105.5C 155.183,138.65 138.683,155.15 105.5,155C 79.467,148.287 67.3003,131.454 69,104.5C 73.7836,84.8823 85.9502,72.8823 105.5,68.5 Z"/></g>
<g><path style="opacity:1" fill="#fcfcfc" d="M 104.5,80.5 C 132.489,79.3216 145.323,92.6549 143,120.5C 135.967,138.495 122.8,145.995 103.5,143C 81.0232,133.194 74.8565,117.027 85,94.5C 90.0737,87.725 96.5737,83.0584 104.5,80.5 Z"/></g>
<g><path style="opacity:1" fill="#bcbbbb" d="M 119.5,177.5 C 119.5,177.833 119.5,178.167 119.5,178.5C 110.6,179.071 101.934,178.071 93.5,175.5C 83.6598,172.915 74.9931,168.248 67.5,161.5C 64.5285,158.192 61.5285,154.859 58.5,151.5C 50.0228,139.942 45.6895,126.942 45.5,112.5C 49.5,112.5 53.5,112.5 57.5,112.5C 59.0922,140.938 73.7589,158.771 101.5,166C 104.817,166.498 108.15,166.665 111.5,166.5C 111.5,170.167 111.5,173.833 111.5,177.5C 114.167,177.5 116.833,177.5 119.5,177.5 Z"/></g>
<g><path style="opacity:1" fill="#ef7918" d="M 58.5,151.5 C 61.5285,154.859 64.5285,158.192 67.5,161.5C 66.7798,165.73 66.1132,170.063 65.5,174.5C 59.1878,170.188 53.8545,164.855 49.5,158.5C 52.2085,155.791 55.2085,153.458 58.5,151.5 Z"/></g>
<g><path style="opacity:1" fill="#e61b32" d="M 140.5,184.5 C 139.791,183.596 138.791,183.263 137.5,183.5C 137.253,180.061 137.586,176.728 138.5,173.5C 149.209,168.311 158.376,160.978 166,151.5C 169.333,153.247 172.167,155.58 174.5,158.5C 165.773,170.535 154.44,179.202 140.5,184.5 Z"/></g>
<g><path style="opacity:1" fill="#ed6116" d="M 67.5,161.5 C 74.9931,168.248 83.6598,172.915 93.5,175.5C 91.5476,179.129 90.881,182.796 91.5,186.5C 82.0595,184.112 73.3929,180.112 65.5,174.5C 66.1132,170.063 66.7798,165.73 67.5,161.5 Z"/></g>
<g><path style="opacity:1" fill="#e83126" d="M 138.5,173.5 C 137.586,176.728 137.253,180.061 137.5,183.5C 138.791,183.263 139.791,183.596 140.5,184.5C 133.282,186.805 125.948,188.472 118.5,189.5C 116.858,185.537 117.191,181.871 119.5,178.5C 119.5,178.167 119.5,177.833 119.5,177.5C 126.005,176.957 132.338,175.624 138.5,173.5 Z"/></g>
<g><path style="opacity:1" fill="#eb451d" d="M 93.5,175.5 C 101.934,178.071 110.6,179.071 119.5,178.5C 117.191,181.871 116.858,185.537 118.5,189.5C 109.178,190.096 100.178,189.096 91.5,186.5C 90.881,182.796 91.5476,179.129 93.5,175.5 Z"/></g>
</svg>
